<svg width="535.15" height="535.15" viewBox="0 0 501.7 501.7" xmlns="http://www.w3.org/2000/svg"><path d="M-.001 0h501.7v501.7H-.001z" fill="#282828" fill-rule="evenodd"/><g fill-rule="evenodd"><path d="m197.245 168.956-122.22 211.66-28.535-48.37 32.939-56.688-65.416-.172-13.941-24.17 14.236-24.72 93.112.294 33.464-57.69z" fill="#d3869b"/><path d="m206.615 338.156 244.42.013-27.622 48.897-65.562-.182 32.559 56.737-13.961 24.159-28.527.031-46.302-80.784-66.693-.135z" fill="#b8bb26"/><path d="m348.875 245.416-122.2-211.68 56.157-.527 32.623 56.87 32.857-56.566 27.902.011 14.29 24.69-46.81 80.49 33.23 57.826z" fill="#fe8019"/><path transform="translate(-156.415 966.536)" d="m451.3-803.62-244.41-.012 27.622-48.897 65.562.182-32.559-56.737 13.96-24.159 28.528-.031 46.301 80.784 66.693.135z" fill="#cc241d" style="isolation:auto;mix-blend-mode:normal"/><path transform="translate(-156.415 966.536)" d="m460.9-633.97 122.22-211.66 28.535 48.37-32.939 56.687 65.415.172 13.942 24.17-14.236 24.72-93.112-.293-33.464 57.69z" fill="#d79921" style="isolation:auto;mix-blend-mode:normal"/><path transform="translate(-156.415 966.536)" d="m309.4-710.25 122.2 211.68-56.157.527-32.623-56.87-32.857 56.566-27.902-.011-14.29-24.69 46.81-80.49-33.23-57.826z" fill="#458588" style="isolation:auto;mix-blend-mode:normal"/></g></svg>